# xmcd
#
# Track frame offsets:
#	150
#	4876
#	18219
#	36250
#	54520
#	78654
#	88754
#	100028
#	128019
#	144557
#	158581
#	176904
#	197439
#	216426
#	234910
#
# Disc length: 3383 seconds
#
# Revision: 0
# Processed by: cddbd v1.5.2PL0 Copyright (c) Steve Scherf et al.
# Submitted via: audiograbber 1.83.01
#
DISCID=bf0d350f
DTITLE=Ghoultown - Live After Sundown
DYEAR=2008
DGENRE=Country
TTITLE0=Cruel Winds Of Dusk
TTITLE1=Dead Outlaw
TTITLE2=Against A Crooked Sky
TTITLE3=Werewolves On Wheels
TTITLE4=I Spit On Your Grave
TTITLE5=Thunder Over El Paso
TTITLE6=Find A Good Horse
TTITLE7=Drink With The Living Dead
TTITLE8=London Dungeon
TTITLE9=Train To Nowhere
TTITLE10=Under The Phantom Moon
TTITLE11=Life After Sundown
TTITLE12=Cowboys
TTITLE13=Hogtrail
TTITLE14=The Ballad Of Clarence Heckles
EXTD=
EXTT0=
EXTT1=
EXTT2=
EXTT3=
EXTT4=
EXTT5=
EXTT6=
EXTT7=
EXTT8=
EXTT9=
EXTT10=
EXTT11=
EXTT12=
EXTT13=
EXTT14=
PLAYORDER=
